<svg data-v-423bf9ae="" xmlns="http://www.w3.org/2000/svg" viewBox="0 0 565 136" class="iconLeft"><!----><!----><!----><g data-v-423bf9ae="" id="2cf35a2b-bdce-48e4-ab0b-2e97175e058c" fill="#FFFFFF" transform="matrix(3.4149117469787598,0,0,3.4149117469787598,166.79637145996094,29.372663497924805)"><path d="M2.62 15.67Q1.82 15.67 1.47 15.39Q1.12 15.11 1.12 14.45Q1.12 13.79 1.59 10.46Q2.06 7.14 2.06 5.72Q2.06 4.30 1.86 3.86L1.86 3.86Q3.29 3.98 3.74 4.98L3.74 4.98Q4.82 4.40 6.11 4.40Q7.41 4.40 8.15 5.20Q8.90 6.01 8.90 7.18L8.90 7.18Q8.90 8.64 7.84 9.81L7.84 9.81Q7.32 10.37 6.50 10.72Q5.68 11.07 4.69 11.07L4.69 11.07Q4.27 11.07 3.89 11.02L3.89 11.02L3.85 10.43Q3.91 10.43 3.96 10.43L3.96 10.43Q5.54 10.43 6.48 9.25L6.48 9.25Q7.13 8.41 7.13 7.49L7.13 7.49Q7.13 6.13 6.02 5.70L6.02 5.70Q5.08 5.35 3.92 5.84L3.92 5.84L3.92 5.87Q3.92 6.40 3.52 9.35Q3.12 12.29 3.12 14.27L3.12 14.27Q3.12 15.15 3.21 15.64L3.21 15.64Q2.76 15.67 2.62 15.67L2.62 15.67ZM13.75 8.41L13.75 8.41Q12.84 8.41 12.12 9.64Q11.41 10.86 11.41 12.08L11.41 12.08Q11.41 14.63 12.73 14.63L12.73 14.63Q13.66 14.63 14.25 13.41Q14.84 12.18 14.84 10.65L14.84 10.65Q14.84 8.41 13.75 8.41ZM14.62 7.39Q15.46 7.39 16.04 8.22Q16.63 9.04 16.63 10.43L16.63 10.43Q16.63 11.98 16.00 13.29L16.00 13.29Q15.30 14.76 14.01 15.32L14.01 15.32Q13.29 15.64 12.42 15.64L12.42 15.64Q11.20 15.64 10.30 14.69Q9.39 13.75 9.39 11.98Q9.39 10.21 10.26 8.86Q11.13 7.50 12.56 7.15L12.56 7.15Q12.71 7.15 12.85 7.25Q12.98 7.34 12.98 7.43L12.98 7.43Q11.56 8.41 11.28 10.16L11.28 10.16Q11.58 9.38 12.01 8.81Q12.43 8.23 12.89 7.94L12.89 7.94Q13.78 7.39 14.62 7.39ZM23.00 7.32L23.00 7.32Q23.74 7.32 24.26 7.87Q24.78 8.41 24.78 9.27Q24.78 10.12 24.30 10.73Q23.81 11.34 22.95 11.68L22.95 11.68L23.11 12.19Q23.58 13.64 24.46 15.05Q25.34 16.46 25.89 16.98L25.89 16.98Q25.38 17.11 24.99 17.11L24.99 17.11Q23.58 17.11 22.51 15.05L22.51 15.05Q22.09 14.24 21.28 12.01L21.28 12.01Q21.10 12.03 20.75 12.03L20.75 12.03Q20.66 11.96 20.66 11.58L20.66 11.58Q21.31 11.56 21.81 11.35Q22.32 11.14 22.60 10.81L22.60 10.81Q23.13 10.12 23.13 9.37L23.13 9.37Q23.13 8.99 22.97 8.74Q22.81 8.50 22.51 8.50L22.51 8.50Q21.99 8.50 21.46 9.24Q20.92 9.98 20.55 11.30Q20.17 12.63 20.17 13.78Q20.17 14.94 20.26 15.43L20.26 15.43Q19.81 15.46 19.67 15.46L19.67 15.46Q18.87 15.46 18.52 15.18Q18.17 14.91 18.17 14.31Q18.17 13.71 18.42 12.01L18.42 12.01Q19.17 6.80 19.17 4.10L19.17 4.10Q19.17 2.88 19.00 2.46L19.00 2.46Q20.05 2.74 20.43 3.31Q20.82 3.88 20.82 4.91L20.82 4.91Q20.82 5.61 20.55 7.85Q20.27 10.09 20.17 11.10L20.17 11.10Q20.68 8.23 22.23 7.50L22.23 7.50Q22.62 7.32 23.00 7.32ZM29.44 11.98L29.44 11.98Q28.77 11.98 28.13 11.83L28.13 11.83Q28.11 11.97 28.11 12.26L28.11 12.26Q28.11 13.43 28.55 14.01Q28.98 14.60 29.58 14.60Q30.18 14.60 30.73 14.24Q31.28 13.87 31.68 13.23L31.68 13.23Q32.19 13.34 32.19 13.75L32.19 13.75Q30.95 15.64 29.01 15.64L29.01 15.64Q27.83 15.64 26.95 14.74Q26.07 13.83 26.07 12.22L26.07 12.22Q26.07 11.02 26.53 9.93Q26.99 8.85 28.00 8.10Q29.01 7.35 30.23 7.35Q31.46 7.35 32.03 7.91Q32.61 8.47 32.61 9.38L32.61 9.38Q32.61 10.70 31.69 11.34Q30.77 11.98 29.44 11.98ZM30.03 8.22L30.03 8.22Q29.32 8.22 28.83 9.10Q28.34 9.98 28.18 11.24L28.18 11.24L28.39 11.24Q29.61 11.24 30.19 10.61Q30.77 9.98 30.77 9.10L30.77 9.10Q30.77 8.74 30.58 8.48Q30.39 8.22 30.03 8.22ZM36.78 10.60Q36.55 11.84 36.43 12.81Q36.30 13.78 36.30 14.78Q36.30 15.79 36.50 16.23L36.50 16.23Q35.42 15.95 35.01 15.37Q34.61 14.78 34.61 13.72L34.61 13.72Q34.61 12.78 34.90 11.15Q35.20 9.52 35.28 8.95L35.28 8.95Q34.55 9.07 33.73 9.44L33.73 9.44Q33.70 9.13 33.70 8.97L33.70 8.97Q33.70 8.23 34.15 7.96Q34.59 7.69 35.43 7.67L35.43 7.67Q35.53 6.62 35.53 6.16Q35.53 5.70 35.52 5.39Q35.52 5.08 35.52 4.93L35.52 4.93Q36.44 5.03 36.86 5.48Q37.28 5.94 37.28 6.78L37.28 6.78Q37.28 7.11 37.21 7.71L37.21 7.71Q38.39 7.69 38.93 7.25L38.93 7.25Q38.96 7.53 38.96 7.67L38.96 7.67Q38.96 8.34 38.72 8.60Q38.49 8.86 37.93 8.86Q37.37 8.86 37.07 8.85L37.07 8.85Q37.00 9.35 36.78 10.60ZM41.65 10.88Q42.15 9.06 42.86 8.20Q43.57 7.34 44.18 7.34Q44.79 7.34 45.09 7.79Q45.40 8.25 45.40 8.97Q45.40 9.69 44.97 10.29Q44.55 10.89 43.81 10.89L43.81 10.89Q43.61 10.89 43.34 10.78L43.34 10.78Q43.78 10.23 43.78 9.46L43.78 9.46Q43.78 9.02 43.41 9.02L43.41 9.02Q43.15 9.02 42.84 9.39Q42.53 9.76 42.25 10.41Q41.97 11.06 41.78 12.08Q41.59 13.09 41.59 14.24L41.59 14.24Q41.59 14.38 41.66 15.43L41.66 15.43Q41.22 15.46 41.09 15.46L41.09 15.46Q40.29 15.46 39.94 15.18Q39.59 14.90 39.59 14.25L39.59 14.25Q39.59 13.97 39.89 12.10Q40.18 10.22 40.18 9.11Q40.18 7.99 39.94 7.06L39.94 7.06Q40.96 7.38 41.37 7.97Q41.78 8.57 41.78 9.36Q41.78 10.15 41.65 10.88L41.65 10.88ZM47.70 12.78L47.70 12.78Q47.70 13.44 47.94 13.85Q48.19 14.27 48.64 14.27L48.64 14.27Q49.29 14.27 49.89 13.50Q50.48 12.73 50.84 11.52Q51.20 10.32 51.20 9.23Q51.20 8.15 51.11 7.48L51.11 7.48Q51.53 7.45 51.70 7.45L51.70 7.45Q52.42 7.45 52.78 7.71Q53.14 7.98 53.14 8.67L53.14 8.67Q53.14 8.93 52.81 10.83Q52.47 12.73 52.47 13.87Q52.47 15.01 52.91 15.89L52.91 15.89Q51.86 15.71 51.37 15.11Q50.88 14.52 50.88 13.40L50.88 13.40Q50.88 13.20 50.93 12.64L50.93 12.64Q50.55 13.97 49.59 14.78Q48.62 15.60 47.69 15.60Q46.76 15.60 46.19 14.90Q45.63 14.21 45.63 12.94Q45.63 11.66 46.08 10.46Q46.54 9.27 47.45 8.44Q48.36 7.60 49.48 7.60L49.48 7.60Q50.12 7.60 50.79 7.91L50.79 7.91Q49.38 8.41 48.54 9.89Q47.70 11.37 47.70 12.78ZM62.52 19.01L62.52 19.01Q64.86 19.01 65.18 13.51L65.18 13.51Q64.67 14.25 63.94 14.64Q63.21 15.02 62.44 15.02L62.44 15.02Q61.10 15.02 60.13 13.93Q59.16 12.84 59.16 10.89L59.16 10.89Q59.16 8.22 60.55 6.24L60.55 6.24Q61.22 5.28 62.29 4.71Q63.35 4.14 64.71 4.14Q66.08 4.14 66.80 4.85Q67.52 5.56 67.52 6.59Q67.52 7.63 66.88 8.23Q66.23 8.83 65.35 8.83L65.35 8.83Q64.78 8.83 64.26 8.55Q63.74 8.27 63.46 7.74L63.46 7.74Q63.84 7.84 64.18 7.84L64.18 7.84Q64.93 7.84 65.37 7.41Q65.81 6.97 65.81 6.43Q65.81 5.88 65.45 5.52Q65.09 5.17 64.41 5.17L64.41 5.17Q63.53 5.17 62.81 6.07Q62.09 6.97 61.73 8.25Q61.36 9.53 61.36 10.91Q61.36 12.28 61.90 13.05Q62.44 13.83 63.21 13.83Q63.98 13.83 64.55 13.08Q65.11 12.32 65.11 11.03L65.11 11.03Q65.11 10.71 65.07 10.37L65.07 10.37L65.07 10.33Q65.38 10.30 65.72 10.30L65.72 10.30Q66.53 10.30 66.84 10.58Q67.16 10.85 67.16 11.51L67.16 11.51Q67.16 15.78 65.63 18.17L65.63 18.17Q65.10 19.00 64.25 19.52Q63.39 20.03 62.31 20.03L62.31 20.03Q60.84 20.03 60.11 19.29Q59.37 18.54 59.37 17.57Q59.37 16.60 59.89 16.02Q60.41 15.44 61.18 15.44L61.18 15.44Q61.60 15.44 62.10 15.68L62.10 15.68Q61.36 16.62 61.36 17.65L61.36 17.65Q61.36 18.26 61.64 18.63Q61.92 19.01 62.52 19.01ZM71.26 10.88Q71.76 9.06 72.47 8.20Q73.18 7.34 73.79 7.34Q74.40 7.34 74.70 7.79Q75.01 8.25 75.01 8.97Q75.01 9.69 74.58 10.29Q74.16 10.89 73.42 10.89L73.42 10.89Q73.22 10.89 72.95 10.78L72.95 10.78Q73.39 10.23 73.39 9.46L73.39 9.46Q73.39 9.02 73.02 9.02L73.02 9.02Q72.76 9.02 72.45 9.39Q72.14 9.76 71.86 10.41Q71.58 11.06 71.39 12.08Q71.20 13.09 71.20 14.24L71.20 14.24Q71.20 14.38 71.27 15.43L71.27 15.43Q70.83 15.46 70.70 15.46L70.70 15.46Q69.90 15.46 69.55 15.18Q69.20 14.90 69.20 14.25L69.20 14.25Q69.20 13.97 69.50 12.10Q69.79 10.22 69.79 9.11Q69.79 7.99 69.55 7.06L69.55 7.06Q70.57 7.38 70.98 7.97Q71.39 8.57 71.39 9.36Q71.39 10.15 71.26 10.88L71.26 10.88ZM79.76 8.41L79.76 8.41Q78.85 8.41 78.13 9.64Q77.42 10.86 77.42 12.08L77.42 12.08Q77.42 14.63 78.74 14.63L78.74 14.63Q79.67 14.63 80.26 13.41Q80.85 12.18 80.85 10.65L80.85 10.65Q80.85 8.41 79.76 8.41ZM80.63 7.39Q81.47 7.39 82.05 8.22Q82.64 9.04 82.64 10.43L82.64 10.43Q82.64 11.98 82.01 13.29L82.01 13.29Q81.31 14.76 80.02 15.32L80.02 15.32Q79.30 15.64 78.43 15.64L78.43 15.64Q77.21 15.64 76.31 14.69Q75.40 13.75 75.40 11.98Q75.40 10.21 76.27 8.86Q77.14 7.50 78.57 7.15L78.57 7.15Q78.72 7.15 78.85 7.25Q78.99 7.34 78.99 7.43L78.99 7.43Q77.57 8.41 77.29 10.16L77.29 10.16Q77.59 9.38 78.01 8.81Q78.44 8.23 78.90 7.94L78.90 7.94Q79.79 7.39 80.63 7.39ZM89.43 7.32L89.43 7.32Q90.16 7.32 90.54 7.59Q90.92 7.85 90.92 8.57L90.92 8.57Q90.92 8.79 90.65 10.54Q90.38 12.28 90.38 13.52Q90.38 14.77 90.65 15.72L90.65 15.72Q89.60 15.39 89.19 14.77Q88.79 14.15 88.79 13.24L88.79 13.24Q88.79 12.89 88.94 11.66L88.94 11.66Q88.51 13.26 87.62 14.34Q86.73 15.43 85.95 15.43L85.95 15.43Q84.34 15.43 84.34 13.10L84.34 13.10Q84.34 12.33 84.57 10.96Q84.80 9.58 84.80 8.86Q84.80 8.15 84.60 7.42L84.60 7.42Q85.76 7.42 86.29 7.72Q86.81 8.02 86.81 8.92L86.81 8.92Q86.81 9.39 86.52 10.81Q86.23 12.22 86.23 12.94L86.23 12.94Q86.23 13.97 86.79 13.97L86.79 13.97Q87.07 13.97 87.43 13.59Q87.79 13.20 88.13 12.57Q88.47 11.93 88.70 10.97Q88.93 10.01 88.93 9.02Q88.93 8.04 88.84 7.35L88.84 7.35Q89.26 7.32 89.43 7.32ZM96.45 8.36Q97.34 7.69 98.21 7.69Q99.08 7.69 99.64 8.38Q100.21 9.07 100.21 10.39L100.21 10.39Q100.21 12.49 99.06 13.96Q97.92 15.43 96.31 15.43L96.31 15.43Q95.73 15.43 95.14 15.20L95.14 15.20Q96.52 14.88 97.33 13.43Q98.14 11.97 98.14 10.53L98.14 10.53Q98.14 9.86 97.89 9.44Q97.65 9.02 97.20 9.02L97.20 9.02Q96.35 9.02 95.69 10.05Q95.03 11.09 94.68 12.89Q94.33 14.69 94.33 16.64Q94.33 18.59 94.61 20.03L94.61 20.03Q93.46 19.99 92.91 19.66Q92.36 19.33 92.36 18.41L92.36 18.41Q92.36 18.07 92.78 14.86Q93.21 11.65 93.21 9.91Q93.21 8.18 93.00 6.99L93.00 6.99Q94.12 7.27 94.55 8.02Q94.98 8.78 94.98 10.23L94.98 10.23Q95.56 9.03 96.45 8.36ZM104.99 11.98L104.99 11.98Q104.31 11.98 103.67 11.83L103.67 11.83Q103.66 11.97 103.66 12.26L103.66 12.26Q103.66 13.43 104.09 14.01Q104.52 14.60 105.13 14.60Q105.73 14.60 106.27 14.24Q106.82 13.87 107.23 13.23L107.23 13.23Q107.73 13.34 107.73 13.75L107.73 13.75Q106.50 15.64 104.55 15.64L104.55 15.64Q103.38 15.64 102.49 14.74Q101.61 13.83 101.61 12.22L101.61 12.22Q101.61 11.02 102.07 9.93Q102.54 8.85 103.54 8.10Q104.55 7.35 105.78 7.35Q107.00 7.35 107.58 7.91Q108.15 8.47 108.15 9.38L108.15 9.38Q108.15 10.70 107.23 11.34Q106.32 11.98 104.99 11.98ZM105.57 8.22L105.57 8.22Q104.86 8.22 104.37 9.10Q103.88 9.98 103.73 11.24L103.73 11.24L103.94 11.24Q105.15 11.24 105.73 10.61Q106.32 9.98 106.32 9.10L106.32 9.10Q106.32 8.74 106.13 8.48Q105.94 8.22 105.57 8.22ZM113.79 6.51L113.79 6.51Q112.94 6.51 112.38 7.65Q111.83 8.79 111.64 10.36L111.64 10.36Q112.67 9.94 113.76 9.94Q114.84 9.94 115.67 10.63Q116.51 11.31 116.51 12.45L116.51 12.45Q116.51 13.97 115.46 14.94Q114.41 15.90 113.04 15.90Q111.66 15.90 110.66 14.83Q109.65 13.75 109.65 11.65L109.65 11.65Q109.65 9.28 110.67 7.41L110.67 7.41Q111.17 6.48 112.06 5.92Q112.94 5.36 114.06 5.36Q115.19 5.36 115.87 5.98Q116.55 6.59 116.55 7.28Q116.55 7.97 116.16 8.38Q115.77 8.79 115.01 8.79L115.01 8.79Q114.67 8.79 114.35 8.65L114.35 8.65Q114.79 8.34 114.79 7.63L114.79 7.63Q114.79 7.18 114.53 6.85Q114.27 6.51 113.79 6.51ZM112.92 10.98L112.92 10.98Q112.27 10.98 111.57 11.23L111.57 11.23Q111.55 11.38 111.55 12.02Q111.55 12.66 111.68 13.32Q111.80 13.99 112.04 14.28Q112.28 14.57 112.50 14.67Q112.73 14.77 113.04 14.77L113.04 14.77Q113.78 14.77 114.24 14.16Q114.70 13.55 114.70 12.78Q114.70 12.00 114.27 11.49Q113.85 10.98 112.92 10.98Z"></path></g><!----><g data-v-423bf9ae="" id="311b0159-e2e6-4b33-8f51-c5f0a19bb567" transform="matrix(1.227222204208374,0,0,1.227222204208374,0.6591750979423523,-7.204844951629639)" stroke="none" fill="#FFC017"><g clip-rule="evenodd"><path d="M28.2 47.4h-7.9c.2-54.8 82.2-54.8 82.4 0h-7.9c-.2-44.1-66.5-44.1-66.6 0z"></path><path d="M116.2 46.2c0 16.5 15 52.5 0 59.3-33.2 15-76.2 15-109.4 0-15-6.8 0-42.8 0-59.3h109.4z"></path><path d="M11.5 101c-4.6-.7-9.1-3.2-9.4-5 .6-1.1.9-1.6 1.3-2.4 19.8 8.9 95.7 8.9 115.6 0 .4.8.7 1.3 1.3 2.4-.3 1.8-4.9 4.3-9.5 5-30.1 4.5-69.3 4.5-99.3 0z"></path><path d="M59.6 80.7c4.2-8.4 17-5.9 16.9 1.4-.4 7.4-11.1 13.5-16.9 16-6.5-2.4-16.6-8.3-16.9-16-.3-6.9 12.7-9.4 16.9-1.4z"></path></g></g><!----></svg>