<svg data-v-423bf9ae="" xmlns="http://www.w3.org/2000/svg" viewBox="0 0 532 136" class="iconLeft"><!----><!----><!----><g data-v-423bf9ae="" id="87f10f26-d9cb-43f7-85c1-c518cfb13bf5" fill="white" transform="matrix(4.987530708312988,0,0,4.987530708312988,166.9801788330078,39.51898193359375)"><path d="M2.59 10.50Q2.27 10.50 1.83 10.26Q1.39 10.02 1.06 9.70Q0.73 9.38 0.73 9.17L0.73 9.17Q0.73 8.81 1.41 5.46L1.41 5.46Q1.50 5.07 1.69 4.12Q1.88 3.18 1.95 2.76L1.95 2.76L1.43 2.84Q0.99 2.44 0.99 1.82L0.99 1.82Q0.99 1.39 1.23 0.92L1.23 0.92Q2.37 0.63 3.53 0.63L3.53 0.63Q4.76 0.63 5.82 0.95Q6.87 1.27 7.53 1.94Q8.19 2.60 8.19 3.60L8.19 3.60Q8.19 4.48 7.61 5.27Q7.03 6.06 5.92 6.58Q4.82 7.10 3.32 7.21L3.32 7.21Q3.22 7.88 3.16 8.43L3.16 8.43Q3.04 9.49 2.93 10.00Q2.81 10.50 2.59 10.50L2.59 10.50ZM3.53 5.47Q4.75 5.24 5.41 4.74Q6.08 4.24 6.08 3.63L6.08 3.63Q6.08 3.21 5.66 2.92Q5.25 2.63 4.55 2.63L4.55 2.63Q4.30 2.63 4.00 2.67L4.00 2.67L3.78 3.99Q3.58 5.10 3.53 5.47L3.53 5.47ZM11.87 2.59Q12.87 2.70 13.68 3.18Q14.50 3.67 14.97 4.34Q15.43 5.01 15.43 5.68L15.43 5.68Q15.43 6.69 14.91 7.83Q14.39 8.96 13.47 9.73Q12.54 10.50 11.41 10.50L11.41 10.50Q10.85 10.50 10.22 10.09Q9.59 9.67 9.16 9.08Q8.74 8.48 8.74 8.02L8.74 8.02Q8.74 7.17 8.95 6.26Q9.16 5.36 9.59 4.51L9.59 4.51Q10.00 4.28 10.40 4.28L10.40 4.28Q10.58 4.28 10.74 4.33L10.74 4.33Q10.68 4.16 10.68 3.93L10.68 3.93Q10.68 3.49 11.00 3.12Q11.31 2.76 11.87 2.59L11.87 2.59ZM10.91 8.90Q12.07 8.51 12.71 7.56Q13.36 6.61 13.57 5.29L13.57 5.29Q12.94 4.84 11.86 4.84L11.86 4.84Q11.59 4.84 11.45 4.86L11.45 4.86Q11.61 5.14 11.61 5.49L11.61 5.49Q11.24 6.06 11.05 6.75Q10.85 7.45 10.85 8.15L10.85 8.15Q10.85 8.57 10.91 8.90L10.91 8.90ZM18.73 5.70Q19.75 4.34 20.36 3.66Q20.96 2.98 21.42 2.98L21.42 2.98Q21.74 2.98 22.09 3.29Q22.43 3.60 22.65 4.02Q22.88 4.45 22.88 4.75L22.88 4.75Q22.88 5.54 22.25 6.33Q21.63 7.13 20.68 7.76L20.68 7.76Q20.96 8.02 21.15 8.16Q21.35 8.30 21.57 8.39L21.57 8.39Q22.01 8.25 22.67 7.88L22.67 7.88Q23.09 8.13 23.31 8.47Q23.53 8.81 23.53 9.14L23.53 9.14Q23.53 9.73 23.00 10.12Q22.47 10.50 21.67 10.50L21.67 10.50Q21.01 10.50 20.46 10.12Q19.91 9.73 19.55 9.08Q19.19 8.43 19.07 7.67L19.07 7.67L19.33 7.24Q20.10 6.93 20.50 6.52Q20.90 6.12 20.90 5.80L20.90 5.80Q20.90 5.66 20.82 5.58Q20.75 5.50 20.62 5.50L20.62 5.50Q20.31 5.50 19.87 5.92Q19.42 6.33 18.62 7.20L18.62 7.20Q18.61 7.21 18.30 7.56L18.30 7.56Q18.26 8.65 18.09 9.58Q17.92 10.50 17.63 10.50L17.63 10.50Q17.28 10.50 16.81 10.26Q16.35 10.02 16.02 9.70Q15.69 9.37 15.69 9.13L15.69 9.13Q15.69 8.96 15.81 8.55Q15.92 8.13 16.07 7.63L16.07 7.63Q16.62 5.84 16.93 4.42L16.93 4.42Q17.09 3.64 17.22 2.80L17.22 2.80Q17.42 1.68 17.56 1.08Q17.70 0.48 17.91 0.06Q18.13-0.35 18.45-0.35L18.45-0.35Q18.69-0.35 19.16-0.06Q19.63 0.22 19.99 0.60Q20.36 0.97 20.36 1.20L20.36 1.20Q20.36 1.41 20.21 1.67Q20.06 1.93 19.73 2.41L19.73 2.41Q19.66 2.51 19.47 2.80Q19.28 3.09 19.19 3.29L19.19 3.29Q19.03 3.70 18.82 4.33Q18.62 4.96 18.48 5.56L18.48 5.56L18.73 5.70ZM27.27 10.50Q26.60 10.50 25.87 10.06Q25.14 9.62 24.67 8.97Q24.19 8.33 24.19 7.76L24.19 7.76Q24.19 6.73 24.67 5.52Q25.16 4.30 26.01 3.45Q26.87 2.60 27.94 2.60L27.94 2.60Q28.71 2.60 29.34 2.94Q29.96 3.28 30.31 3.78Q30.66 4.28 30.66 4.76L30.66 4.76Q30.66 5.35 30.13 5.92Q29.60 6.48 28.64 6.91Q27.69 7.34 26.47 7.52L26.47 7.52Q26.46 7.69 26.46 8.02L26.46 8.02Q26.46 8.44 26.49 8.65L26.49 8.65Q27.19 8.58 27.87 8.27Q28.56 7.97 29.37 7.41L29.37 7.41Q29.92 7.57 30.20 7.94Q30.48 8.30 30.48 8.81L30.48 8.81Q30.48 9.23 29.97 9.63Q29.46 10.02 28.70 10.26Q27.94 10.50 27.27 10.50L27.27 10.50ZM26.68 6.47Q27.54 6.16 28.11 5.68Q28.69 5.21 28.69 4.87L28.69 4.87Q28.69 4.48 28.14 4.34L28.14 4.34Q27.61 4.73 27.24 5.28Q26.87 5.82 26.68 6.47L26.68 6.47ZM36.81 4.91L34.72 5.00Q34.26 7.11 34.12 8.44L34.12 8.44Q35.01 8.01 35.56 7.55L35.56 7.55Q36.18 7.76 36.48 8.13Q36.78 8.50 36.78 8.97L36.78 8.97Q36.78 9.31 36.30 9.67Q35.83 10.02 35.17 10.26Q34.51 10.50 34.05 10.50L34.05 10.50Q33.64 10.50 33.15 10.26Q32.65 10.01 32.30 9.68Q31.95 9.35 31.95 9.11L31.95 9.11Q31.95 8.92 32.09 8.27Q32.24 7.62 32.36 7.15Q32.48 6.68 32.54 6.45L32.54 6.45L32.87 5.11L32.02 5.17Q31.78 5.05 31.65 4.82Q31.53 4.58 31.53 4.27L31.53 4.27Q31.53 3.71 31.93 3.32L31.93 3.32Q32.44 3.35 33.17 3.37L33.17 3.37Q33.17 2.48 33.36 1.39Q33.56 0.31 33.80 0.31L33.80 0.31Q34.09 0.31 34.54 0.56Q34.99 0.81 35.32 1.15Q35.66 1.48 35.66 1.74L35.66 1.74Q35.66 2.06 35.54 2.39Q35.42 2.72 35.15 3.29L35.15 3.29Q35.39 3.26 36.36 3.09L36.36 3.09L36.68 3.04Q36.93 3.18 37.06 3.44Q37.20 3.71 37.20 4.02L37.20 4.02Q37.20 4.27 37.10 4.51Q37.00 4.75 36.81 4.91L36.81 4.91ZM40.00 10.50Q39.62 10.50 39.17 10.26Q38.72 10.01 38.40 9.68Q38.08 9.35 38.08 9.13L38.08 9.13Q38.08 8.86 38.19 8.44Q38.30 8.01 38.53 7.32L38.53 7.32Q38.75 6.61 38.86 6.18Q38.98 5.75 38.98 5.49L38.98 5.49Q38.98 5.38 38.85 5.25Q38.72 5.12 38.46 4.91L38.46 4.91Q38.15 4.66 38.01 4.52Q37.87 4.38 37.87 4.24L37.87 4.24Q37.87 3.95 38.15 3.56Q38.43 3.16 38.81 2.88Q39.19 2.60 39.45 2.60L39.45 2.60Q39.75 2.60 40.12 2.87Q40.50 3.14 40.78 3.48Q41.06 3.82 41.06 4.00L41.06 4.00Q41.06 4.54 40.85 5.40L40.85 5.40L41.02 5.49Q41.34 4.97 41.73 4.25Q42.11 3.53 42.20 3.36L42.20 3.36L42.46 2.86Q43.43 2.83 43.90 3.21Q44.38 3.58 44.38 4.21L44.38 4.21Q44.38 4.83 43.97 5.45L43.97 5.45Q42.97 5.78 42.26 6.11Q41.55 6.44 40.84 6.89L40.84 6.89Q40.80 8.44 40.59 9.47Q40.39 10.50 40.00 10.50L40.00 10.50ZM51.02 8.44Q51.87 8.02 52.46 7.55L52.46 7.55Q53.07 7.76 53.38 8.13Q53.68 8.50 53.68 8.97L53.68 8.97Q53.68 9.31 53.20 9.67Q52.72 10.02 52.07 10.26Q51.41 10.50 50.95 10.50L50.95 10.50Q50.62 10.50 50.21 10.26Q49.80 10.02 49.50 9.70Q49.20 9.38 49.20 9.20L49.20 9.20Q49.20 9.06 49.31 8.82Q49.43 8.58 49.57 8.33Q49.71 8.08 49.76 7.99L49.76 7.99L49.41 7.80Q48.66 9.02 47.98 9.76Q47.31 10.50 46.65 10.50L46.65 10.50Q46.20 10.50 45.70 10.11Q45.21 9.72 44.86 9.16Q44.52 8.60 44.52 8.16L44.52 8.16Q44.52 6.92 45.04 5.61Q45.56 4.31 46.49 3.46Q47.42 2.60 48.59 2.60L48.59 2.60Q49.01 2.60 49.45 2.98Q49.88 3.36 50.01 3.75L50.01 3.75Q50.08 3.44 50.21 3.21Q50.34 2.98 50.50 2.98L50.50 2.98Q50.86 2.98 51.30 3.24Q51.74 3.50 52.05 3.84Q52.36 4.19 52.36 4.38L52.36 4.38Q52.35 4.65 52.14 5.26Q51.94 5.88 51.49 7.14L51.49 7.14Q51.23 7.83 51.02 8.44L51.02 8.44ZM46.72 8.55Q47.85 7.85 48.69 6.82Q49.53 5.80 49.84 4.55L49.84 4.55Q49.46 4.38 49.13 4.38L49.13 4.38Q48.47 4.38 47.95 4.97Q47.43 5.56 47.12 6.51Q46.82 7.46 46.72 8.55L46.72 8.55ZM62.52 9.67Q62.12 10.00 61.47 10.27Q60.83 10.54 60.47 10.54L60.47 10.54Q60.03 10.54 59.46 10.04Q58.90 9.55 58.51 8.86Q58.13 8.16 58.16 7.63L58.16 7.63Q58.25 6.13 58.84 4.48Q59.43 2.83 60.47 1.69Q61.50 0.56 62.85 0.56L62.85 0.56Q63.56 0.56 64.13 0.93Q64.69 1.30 65.01 1.90Q65.32 2.49 65.32 3.14L65.32 3.14Q65.32 3.61 64.99 3.89Q64.65 4.17 64.13 4.17L64.13 4.17Q63.70 4.17 63.20 3.96L63.20 3.96Q63.22 3.63 63.22 3.51L63.22 3.51Q63.22 2.98 63.08 2.72Q62.93 2.45 62.66 2.45L62.66 2.45Q62.22 2.45 61.64 3.42Q61.07 4.40 60.64 5.84Q60.21 7.28 60.16 8.60L60.16 8.60Q61.53 8.58 63.25 7.92L63.25 7.92L63.31 7.28Q63.03 7.31 62.85 7.31L62.85 7.31Q62.41 7.31 62.09 7.22Q61.77 7.14 61.71 6.97L61.71 6.97Q61.66 6.85 61.66 6.59L61.66 6.59Q61.66 6.26 61.75 5.89Q61.84 5.53 61.95 5.40L61.95 5.40Q62.15 5.18 62.43 5.11Q62.72 5.04 63.28 5.04L63.28 5.04Q64.34 5.04 64.77 5.51Q65.20 5.98 65.20 6.89L65.20 6.89Q65.20 7.57 64.95 8.74Q64.69 9.91 64.33 10.79Q63.97 11.68 63.63 11.68L63.63 11.68Q63.35 11.68 63.01 11.55Q62.66 11.42 62.43 11.23Q62.19 11.05 62.19 10.89L62.19 10.89Q62.20 10.67 62.35 10.36Q62.50 10.05 62.66 9.81L62.66 9.81L62.52 9.67ZM68.59 5.84Q69.19 5.43 69.71 5.25Q70.22 5.07 70.78 5.07L70.78 5.07Q71.32 5.07 71.83 5.47Q72.35 5.87 72.69 6.47Q73.02 7.08 73.02 7.63L73.02 7.63Q73.02 8.26 72.50 8.93Q71.97 9.60 71.14 10.05Q70.31 10.50 69.43 10.50L69.43 10.50Q68.50 10.50 67.79 10.05Q67.07 9.60 66.69 8.89Q66.30 8.18 66.30 7.42L66.30 7.42Q66.30 6.37 66.80 5.15Q67.30 3.93 68.19 2.86Q69.09 1.79 70.22 1.15L70.22 1.15Q70.94 1.15 71.31 1.47Q71.68 1.79 71.68 2.39L71.68 2.39Q71.68 2.60 71.64 2.86L71.64 2.86Q70.70 3.40 69.96 4.07Q69.22 4.73 68.43 5.70L68.43 5.70L68.59 5.84ZM71.25 7.06Q70.84 6.86 70.34 6.86L70.34 6.86Q69.61 6.86 68.99 7.27Q68.38 7.67 68.18 8.29L68.18 8.29Q68.59 8.60 69.20 8.60L69.20 8.60Q69.68 8.60 70.13 8.41Q70.59 8.22 70.90 7.87Q71.20 7.52 71.25 7.06L71.25 7.06Z"></path></g><!----><g data-v-423bf9ae="" id="814a82b9-104c-495e-8ee9-ef4b8b08e7ee" transform="matrix(1.227222204208374,0,0,1.227222204208374,0.6591750979423523,-7.204844951629639)" stroke="none" fill="white"><g clip-rule="evenodd"><path d="M28.2 47.4h-7.9c.2-54.8 82.2-54.8 82.4 0h-7.9c-.2-44.1-66.5-44.1-66.6 0z"></path><path d="M116.2 46.2c0 16.5 15 52.5 0 59.3-33.2 15-76.2 15-109.4 0-15-6.8 0-42.8 0-59.3h109.4z"></path><path d="M11.5 101c-4.6-.7-9.1-3.2-9.4-5 .6-1.1.9-1.6 1.3-2.4 19.8 8.9 95.7 8.9 115.6 0 .4.8.7 1.3 1.3 2.4-.3 1.8-4.9 4.3-9.5 5-30.1 4.5-69.3 4.5-99.3 0z"></path><path d="M59.6 80.7c4.2-8.4 17-5.9 16.9 1.4-.4 7.4-11.1 13.5-16.9 16-6.5-2.4-16.6-8.3-16.9-16-.3-6.9 12.7-9.4 16.9-1.4z"></path></g></g><!----></svg>